<svg id="Capa_1" enable-background="new 0 0 512 512" height="512" viewBox="0 0 512 512" width="512" xmlns="http://www.w3.org/2000/svg" fill="#ffffff"><g><path d="m497 135h-482c-8.284 0-15 6.716-15 15v332c0 8.284 6.716 15 15 15h482c8.284 0 15-6.716 15-15v-332c0-8.284-6.716-15-15-15zm-15 332h-452v-302h452z"/><path d="m135 437h302c8.284 0 15-6.716 15-15v-212c0-8.284-6.716-15-15-15h-302c-8.284 0-15 6.716-15 15v212c0 8.284 6.716 15 15 15zm15-212h272v182h-99.787l4.394-4.394c5.858-5.858 5.858-15.355 0-21.213-5.857-5.858-15.355-5.858-21.213 0l-4.394 4.394v-20.186c25.85-6.678 45-30.195 45-58.102v-37.499c0-8.284-6.716-15-15-15-18.923 0-34.851 10.145-45 18.804-10.149-8.659-26.077-18.804-45-18.804-8.284 0-15 6.716-15 15v37.5c0 27.906 19.15 51.424 45 58.102v41.398h-121zm136 112.5c-16.542 0-30-13.458-30-30v-18.142c8.461 4.586 15.499 11.608 18.32 15.054 2.848 3.533 7.142 5.588 11.68 5.588s8.832-2.055 11.68-5.588c2.619-3.251 9.729-10.393 18.32-15.049v18.137c0 16.542-13.458 30-30 30z"/><path d="m75 271c8.284 0 15-6.716 15-15v-30c0-8.284-6.716-15-15-15s-15 6.716-15 15v30c0 8.284 6.716 15 15 15z"/><path d="m75 421c8.284 0 15-6.716 15-15v-30c0-8.284-6.716-15-15-15s-15 6.716-15 15v30c0 8.284 6.716 15 15 15z"/><path d="m110.394 100.606c2.812 2.813 6.628 4.394 10.606 4.394h300c8.284 0 15-6.716 15-15v-60c0-8.284-6.716-15-15-15h-300c-3.978 0-7.794 1.581-10.606 4.394l-30 30c-5.858 5.858-5.858 15.355 0 21.213zm16.819-55.606h278.787v30h-278.787l-15-15z"/><circle cx="75" cy="316" r="15"/></g></svg>